<svg viewBox="0 0 3000 3000">
        <g transform="matrix(43.1574,0,0,43.1574,-657.848,-657.87)" style="background: #22C55E">
            <path d="M74.725,54.761C74.877,54.451 74.859,54.084 74.676,53.791C74.493,53.498 74.173,53.319 73.827,53.319L69.557,53.319C69.211,53.319 68.891,53.498 68.708,53.791C68.525,54.084 68.507,54.451 68.659,54.761C69.232,55.927 70.394,56.651 71.691,56.651C72.988,56.651 74.152,55.927 74.725,54.761Z" />
            <path d="M53.034,54.762C53.187,54.452 53.169,54.085 52.987,53.791C52.804,53.498 52.483,53.319 52.137,53.319L47.866,53.319C47.52,53.319 47.199,53.498 47.017,53.791C46.834,54.085 46.816,54.452 46.969,54.762C47.544,55.927 48.705,56.651 50.001,56.651C51.297,56.651 52.459,55.927 53.034,54.762Z"/>
            <path d="M31.336,54.761C31.489,54.451 31.471,54.084 31.288,53.791C31.105,53.498 30.785,53.319 30.439,53.319L26.169,53.319C25.823,53.319 25.502,53.498 25.32,53.791C25.137,54.085 25.119,54.452 25.272,54.762C25.847,55.927 27.008,56.651 28.304,56.651C29.6,56.651 30.763,55.927 31.336,54.761Z" class="text-current"/>
            <path d="M26.123,49.837L26.123,48.348C26.123,47.796 25.675,47.348 25.123,47.348C24.571,47.348 24.123,47.796 24.123,48.348L24.123,49.837C24.123,50.389 24.571,50.837 25.123,50.837C25.675,50.837 26.123,50.389 26.123,49.837Z" style="fill-rule:nonzero;"/>
            <path d="M31.488,50.837C32.04,50.837 32.488,50.389 32.488,49.837L32.488,48.348C32.488,47.796 32.04,47.348 31.488,47.348C30.936,47.348 30.488,47.796 30.488,48.348L30.488,49.837C30.488,50.389 30.936,50.837 31.488,50.837Z" style="fill-rule:nonzero;"/>
            <path d="M47.818,49.837L47.818,48.348C47.818,47.796 47.37,47.348 46.818,47.348C46.266,47.348 45.818,47.796 45.818,48.348L45.818,49.837C45.818,50.389 46.266,50.837 46.818,50.837C47.37,50.837 47.818,50.389 47.818,49.837Z" style="fill-rule:nonzero;"/>
            <path d="M53.183,50.837C53.736,50.837 54.183,50.389 54.183,49.837L54.183,48.348C54.183,47.796 53.736,47.348 53.183,47.348C52.63,47.348 52.183,47.796 52.183,48.348L52.183,49.837C52.183,50.389 52.63,50.837 53.183,50.837Z" style="fill-rule:nonzero;"/>
            <path d="M69.51,49.837L69.51,48.348C69.51,47.796 69.063,47.348 68.51,47.348C67.957,47.348 67.51,47.796 67.51,48.348L67.51,49.837C67.51,50.389 67.957,50.837 68.51,50.837C69.063,50.837 69.51,50.389 69.51,49.837Z" style="fill-rule:nonzero;"/>
            <path d="M74.875,50.837C75.428,50.837 75.875,50.389 75.875,49.837L75.875,48.348C75.875,47.796 75.428,47.348 74.875,47.348C74.322,47.348 73.875,47.796 73.875,48.348L73.875,49.837C73.875,50.389 74.323,50.837 74.875,50.837Z" style="fill-rule:nonzero;"/>
            <path d="M75.822,59.994C78.693,58.231 80.66,54.698 80.66,50.628C80.66,44.805 76.638,40.067 71.694,40.067C66.748,40.067 62.724,44.805 62.724,50.628C62.724,54.701 64.696,58.237 67.572,59.999C64.851,61.08 62.463,63.195 60.842,66.042C59.245,63.234 56.889,61.087 54.128,59.994C56.999,58.231 58.967,54.698 58.967,50.628C58.967,44.805 54.945,40.067 50,40.067C45.055,40.067 41.031,44.805 41.031,50.628C41.031,54.698 42.999,58.232 45.871,59.994C43.11,61.087 40.753,63.235 39.157,66.044C37.537,63.195 35.148,61.079 32.426,59.998C35.301,58.237 37.272,54.701 37.272,50.628C37.272,44.805 33.25,40.067 28.306,40.067C23.36,40.067 19.337,44.805 19.337,50.628C19.337,54.698 21.305,58.232 24.177,59.994C18.994,62.047 15.243,67.84 15.243,74.66C15.243,75.213 15.691,75.66 16.243,75.66C16.795,75.66 17.243,75.213 17.243,74.66C17.243,67.232 22.205,61.189 28.305,61.189L28.306,61.189C32.438,61.189 36.151,63.932 38.079,68.366C37.352,70.291 36.938,72.417 36.938,74.659C36.938,75.212 37.386,75.659 37.938,75.659C38.49,75.659 38.938,75.212 38.938,74.659C38.938,67.231 43.9,61.188 50,61.188L50.001,61.188C56.101,61.188 61.063,67.231 61.063,74.659C61.063,75.212 61.51,75.659 62.063,75.659C62.616,75.659 63.063,75.212 63.063,74.659C63.063,72.416 62.649,70.289 61.921,68.363C63.849,63.931 67.562,61.188 71.693,61.188L71.694,61.188C77.794,61.188 82.756,67.231 82.756,74.659C82.756,75.212 83.203,75.659 83.756,75.659C84.309,75.659 84.756,75.212 84.756,74.659C84.756,67.84 81.006,62.047 75.822,59.994ZM21.337,50.628C21.337,45.907 24.463,42.067 28.306,42.067C32.147,42.067 35.272,45.907 35.272,50.628C35.272,55.349 32.147,59.19 28.306,59.19C24.464,59.19 21.337,55.349 21.337,50.628ZM43.033,50.628C43.033,45.907 46.159,42.067 50.002,42.067C53.844,42.067 56.969,45.907 56.969,50.628C56.969,55.349 53.844,59.19 50.002,59.19C46.159,59.19 43.033,55.349 43.033,50.628ZM64.725,50.628C64.725,45.907 67.852,42.067 71.695,42.067C75.536,42.067 78.661,45.907 78.661,50.628C78.661,55.349 75.536,59.19 71.695,59.19C67.852,59.19 64.725,55.349 64.725,50.628Z" style="fill-rule:nonzero;"/>
            <path d="M39.928,33.379C40.126,33.619 40.412,33.743 40.7,33.743C40.924,33.743 41.149,33.668 41.336,33.514C41.762,33.162 41.823,32.533 41.471,32.106L36.8,26.441C36.449,26.015 35.82,25.955 35.392,26.306C34.966,26.658 34.905,27.287 35.257,27.714L39.928,33.379Z" style="fill-rule:nonzero;"/>
            <path d="M59.299,33.743C59.588,33.743 59.874,33.619 60.071,33.379L64.742,27.714C65.094,27.288 65.033,26.657 64.606,26.306C64.18,25.953 63.548,26.016 63.199,26.441L58.528,32.106C58.176,32.532 58.237,33.163 58.664,33.514C58.85,33.668 59.076,33.743 59.299,33.743Z" style="fill-rule:nonzero;"/>
            <path d="M50,32.562C50.553,32.562 51,32.114 51,31.562L51,25.34C51,24.788 50.553,24.34 50,24.34C49.447,24.34 49,24.788 49,25.34L49,31.562C49,32.114 49.447,32.562 50,32.562Z" style="fill-rule:nonzero;"/>
        </g>
    </svg>